<?xml version="1.0" standalone="no"?>
<!DOCTYPE svg PUBLIC "-//W3C//DTD SVG 20010904//EN"
 "http://www.w3.org/TR/2001/REC-SVG-20010904/DTD/svg10.dtd">
<svg version="1.0" xmlns="http://www.w3.org/2000/svg"
 width="340.000000pt" height="340.000000pt" viewBox="0 0 340.000000 340.000000"
 preserveAspectRatio="xMidYMid meet">
<metadata>
Created by potrace 1.14, written by Peter Selinger 2001-2017
</metadata>
<g transform="translate(0.000000,340.000000) scale(0.100000,-0.100000)"
fill="#000000" stroke="none">
<path d="M1957 3240 c-57 -17 -94 -57 -147 -162 -72 -141 -85 -158 -120 -158
-35 0 -61 32 -118 145 -69 138 -128 182 -233 172 -214 -19 -378 -275 -362
-561 2 -47 -2 -65 -37 -134 -40 -79 -96 -230 -106 -287 -3 -16 -9 -50 -15 -73
-13 -61 -22 -172 -22 -277 0 -378 157 -813 429 -1189 76 -107 241 -267 304
-298 61 -30 80 -31 110 -3 26 23 26 78 1 138 -78 181 -82 404 -11 588 50 131
58 140 82 87 36 -78 68 -169 74 -206 3 -20 7 -44 10 -52 11 -30 4 -198 -10
-266 -8 -39 -27 -102 -41 -139 -29 -77 -32 -121 -9 -153 59 -85 287 98 476
383 308 466 430 961 347 1410 -16 89 -72 252 -115 336 -36 70 -38 80 -40 174
-2 113 -6 143 -35 228 -70 208 -258 343 -412 297z m177 -45 c44 -19 122 -93
160 -153 14 -23 38 -77 52 -119 30 -88 39 -215 23 -318 -5 -33 -12 -76 -14
-95 -23 -154 -63 -377 -90 -490 -26 -113 -77 -265 -111 -332 -37 -74 -81 -88
-127 -40 -39 41 -94 172 -123 292 -25 108 -49 163 -86 197 -77 72 -224 54
-283 -35 -13 -20 -36 -80 -50 -132 -50 -188 -105 -315 -147 -339 -41 -23 -74
-7 -107 51 -25 44 -90 225 -106 293 -15 69 -74 366 -78 395 -3 19 -10 64 -15
100 -22 136 -25 157 -27 240 -4 159 48 301 145 400 115 117 255 137 336 48 12
-12 45 -69 74 -126 54 -107 86 -142 127 -142 46 0 73 31 133 151 64 128 97
162 166 177 42 9 88 2 148 -23z m-1188 -722 c-13 -58 -16 -80 -22 -158 -19
-227 3 -418 68 -605 58 -162 151 -325 225 -390 77 -67 146 -64 223 13 49 49
61 70 89 157 34 102 89 343 80 352 -1 2 8 22 19 45 36 70 90 70 121 0 10 -23
21 -62 25 -87 18 -119 79 -339 111 -399 34 -65 122 -131 175 -131 31 0 91 34
126 72 97 102 219 370 253 553 30 161 33 392 6 525 -21 101 -18 103 19 12 25
-64 61 -183 71 -241 31 -179 27 -413 -10 -599 -3 -12 -7 -34 -10 -50 -19 -94
-97 -310 -162 -451 -39 -84 -207 -359 -232 -381 -3 -3 -30 -34 -60 -70 -122
-146 -250 -242 -292 -220 -23 13 -28 52 -12 97 51 141 64 197 70 305 6 97 -9
201 -42 298 -27 81 -77 182 -92 187 -14 5 -48 -53 -83 -143 -77 -194 -77 -393
-1 -603 27 -72 30 -94 17 -127 -26 -69 -246 113 -404 333 -209 293 -363 681
-390 982 -12 138 -5 370 13 424 2 7 6 29 9 49 3 20 22 83 42 140 19 57 38 111
41 121 9 27 15 20 9 -10z"/>
<path d="M1245 3099 c-55 -26 -91 -71 -117 -148 -21 -59 -23 -84 -23 -251 0
-194 4 -243 36 -430 49 -284 96 -465 127 -494 41 -37 66 4 108 179 44 180 91
257 186 306 65 34 184 32 254 -4 93 -47 137 -121 179 -302 28 -117 57 -190 80
-199 37 -14 75 82 119 299 63 311 81 455 80 660 -1 158 -17 241 -62 312 -51
82 -175 118 -250 73 -25 -15 -43 -42 -72 -103 -55 -119 -103 -162 -188 -171
-92 -9 -156 40 -212 159 -50 106 -73 127 -147 131 -41 2 -70 -3 -98 -17z"/>
</g>
</svg>
